<?xml version="1.0" encoding="UTF-8" standalone="no"?>
<svg
   xml:space="preserve"
   width="126.88593"
   height="126.88598"
   data-id="lg_C5yd5SJuvcyLRzeG4C"
   data-version="1"
   viewBox="0 0 126.88593 126.88598"
   version="1.1"
   id="svg6"
   sodipodi:docname="logo-no-background.svg"
   inkscape:version="1.3.2 (091e20e, 2023-11-25)"
   xmlns:inkscape="http://www.inkscape.org/namespaces/inkscape"
   xmlns:sodipodi="http://sodipodi.sourceforge.net/DTD/sodipodi-0.dtd"
   xmlns="http://www.w3.org/2000/svg"
   xmlns:svg="http://www.w3.org/2000/svg"><defs
     id="defs6" /><sodipodi:namedview
     id="namedview6"
     pagecolor="#ffffff"
     bordercolor="#000000"
     borderopacity="0.25"
     inkscape:showpageshadow="2"
     inkscape:pageopacity="0.0"
     inkscape:pagecheckerboard="0"
     inkscape:deskcolor="#d1d1d1"
     inkscape:zoom="1.1073333"
     inkscape:cx="54.635762"
     inkscape:cy="-3.1607465"
     inkscape:window-width="2032"
     inkscape:window-height="996"
     inkscape:window-x="245"
     inkscape:window-y="239"
     inkscape:window-maximized="0"
     inkscape:current-layer="g6"
     showguides="true"
     showborder="true"
     inkscape:clip-to-page="false" /><g
     data-padding="20"
     id="g6"
     transform="translate(-639.44018,-4.1860954)"><g
       transform="matrix(0.97067,0,0,0.97067,64.282268,6.4788179)"
       id="g5"><rect
         width="681.54901"
         height="66.669998"
         x="-37.147999"
         y="-241.007"
         fill="none"
         rx="0"
         ry="0"
         transform="translate(458.73,369.45)"
         id="rect1" /><path
         fill="#22586a"
         stroke="#faffd0"
         stroke-width="4.5"
         d="m 657.897,-0.112 a 63.11,63.11 0 1 0 0,126.22 63.11,63.11 0 1 0 0,-126.22 z"
         id="path2" /><path
         fill="#faffd0"
         d="m 676.953,75.89 -42.048,-4.703 c -0.768,-0.096 -1.536,0.48 -1.632,1.248 -0.096,0.768 0.48,1.536 1.248,1.632 l 41.952,4.704 c 0.768,0.096 1.536,-0.48 1.632,-1.248 0.096,-0.768 -0.384,-1.536 -1.152,-1.632 M 663.129,34.707 c 0.768,0.096 1.536,-0.48 1.632,-1.248 0.096,-0.768 -0.48,-1.536 -1.248,-1.632 l -5.76,-0.672 c -0.768,-0.096 -1.536,0.48 -1.632,1.248 -0.096,0.768 0.48,1.536 1.248,1.632 z m -23.904,11.328 c -0.096,0.768 0.48,1.536 1.248,1.632 l 36.288,4.032 c 0.768,0.096 1.536,-0.48 1.632,-1.248 0.096,-0.768 -0.48,-1.536 -1.248,-1.632 l -36.288,-4.032 c -0.864,-0.096 -1.536,0.48 -1.632,1.248 m -1.44,3.744 c -0.096,0.767 0.48,1.536 1.248,1.632 l 38.208,4.224 c 0.768,0.096 1.536,-0.48 1.632,-1.248 0.096,-0.768 -0.48,-1.536 -1.248,-1.632 l -38.208,-4.224 c -0.768,-0.096 -1.536,0.48 -1.632,1.248 m 0.864,5.375 38.208,4.224 c 0.768,0.096 1.536,-0.48 1.632,-1.248 0.096,-0.768 -0.48,-1.536 -1.248,-1.632 l -38.208,-4.224 c -0.768,-0.096 -1.536,0.48 -1.632,1.248 -0.096,0.864 0.48,1.536 1.248,1.632 m 37.632,9.024 -38.208,-4.224 c -0.768,-0.096 -1.536,0.48 -1.632,1.248 -0.096,0.768 0.48,1.536 1.248,1.632 l 38.208,4.224 c 0.768,0.096 1.536,-0.48 1.632,-1.248 0.096,-0.768 -0.48,-1.536 -1.248,-1.632 m 0.48,-3.84 -38.208,-4.223 c -0.768,-0.096 -1.536,0.48 -1.632,1.248 -0.096,0.768 0.48,1.536 1.248,1.632 l 38.208,4.224 c 0.768,0.096 1.536,-0.48 1.632,-1.248 0.096,-0.768 -0.48,-1.536 -1.248,-1.632 m -0.864,7.68 -38.208,-4.224 c -0.768,-0.096 -1.536,0.48 -1.632,1.248 -0.096,0.768 0.48,1.536 1.248,1.632 l 38.208,4.224 c 0.768,0.096 1.536,-0.48 1.632,-1.248 0.096,-0.768 -0.48,-1.536 -1.248,-1.632 m -0.48,3.84 -38.208,-4.224 c -0.768,-0.097 -1.536,0.48 -1.632,1.247 -0.096,0.767 0.48,1.536 1.248,1.632 l 38.208,4.224 c 0.768,0.096 1.536,-0.48 1.632,-1.248 0.096,-0.768 -0.384,-1.535 -1.248,-1.632"
         id="path3" /><path
         fill="#faffd0"
         d="m 683.183,49.779 -11.424,-14.209 1.152,-10.368 -3.84,-0.384 -0.768,6.528 -4.992,-6.24 1.632,-1.248 c 0.576,-0.48 0.768,-1.44 0.192,-2.016 -0.48,-0.576 -1.44,-0.768 -2.016,-0.192 l -1.536,1.152 -1.248,-1.632 c -0.48,-0.576 -1.44,-0.768 -2.016,-0.192 -0.576,0.48 -0.768,1.44 -0.192,2.016 l 1.248,1.632 -24.864,19.872 c -0.576,0.48 -0.768,1.44 -0.192,2.016 0.288,0.288 0.576,0.48 0.96,0.576 0.384,0 0.768,-0.096 1.056,-0.288 l 24.864,-19.873 19.68,24.673 c 0.48,0.576 1.44,0.767 2.016,0.192 0.672,-0.48 0.768,-1.344 0.288,-2.016"
         id="path4" /><path
         fill="#faffd0"
         d="m 643.449,42.675 c -0.096,0.768 0.48,1.536 1.248,1.632 l 28.608,3.168 c 0.768,0.096 1.536,-0.48 1.632,-1.248 0.096,-0.768 -0.48,-1.536 -1.248,-1.632 l -11.328,-1.248 c -0.768,0.768 -1.92,1.248 -3.072,1.056 -1.152,-0.192 -2.208,-0.864 -2.784,-1.728 l -11.328,-1.248 c -0.96,-0.096 -1.632,0.48 -1.728,1.248 m 8.448,-6.816 c -0.096,0.768 0.48,1.536 1.248,1.632 l 3.744,0.384 c 0.768,-0.768 1.92,-1.248 3.072,-1.056 1.152,0.192 2.208,0.864 2.784,1.728 l 3.744,0.384 c 0.768,0.096 1.536,-0.48 1.632,-1.248 0.096,-0.768 -0.48,-1.536 -1.248,-1.632 l -13.344,-1.536 c -0.768,0 -1.536,0.576 -1.632,1.344 m 18.038,7.392 c 0.768,0.096 1.536,-0.48 1.632,-1.248 0.096,-0.768 -0.48,-1.536 -1.248,-1.632 l -7.008,-0.768 c 0.096,0.48 0.192,0.96 0.096,1.44 -0.096,0.48 -0.192,0.96 -0.48,1.44 z m -22.262,-4.023 c -0.096,0.768 0.48,1.536 1.248,1.632 l 7.008,0.768 c -0.096,-0.48 -0.192,-0.96 -0.096,-1.44 0.096,-0.48 0.192,-0.96 0.48,-1.44 l -7.008,-0.768 c -0.768,-0.096 -1.536,0.48 -1.632,1.248 m 22.944,42.72 h -0.192 l -3.84,-0.384 c -0.768,-0.096 -1.344,-0.768 -1.248,-1.632 0.096,-0.768 0.768,-1.344 1.632,-1.248 l 3.84,0.384 c 0.768,0.096 1.344,0.768 1.248,1.632 a 1.454,1.454 0 0 1 -1.44,1.248 m 2.688,22.455 h -10.56 c -0.768,0 -1.44,-0.672 -1.44,-1.44 0,-0.768 0.672,-1.44 1.44,-1.44 h 10.56 c 0.768,0 1.44,0.672 1.44,1.44 0,0.768 -0.672,1.44 -1.44,1.44 m -4.8,-3.447 h -0.192 l -3.84,-0.384 c -0.768,-0.096 -1.344,-0.768 -1.248,-1.632 0.096,-0.768 0.768,-1.344 1.632,-1.248 l 3.84,0.384 c 0.768,0.096 1.344,0.768 1.248,1.632 -0.096,0.768 -0.768,1.248 -1.44,1.248 m 1.344,-3.648 h -0.192 l -3.84,-0.385 c -0.768,-0.096 -1.344,-0.767 -1.248,-1.632 0.096,-0.767 0.768,-1.344 1.632,-1.248 l 3.84,0.385 c 0.768,0.096 1.344,0.767 1.248,1.632 a 1.454,1.454 0 0 1 -1.44,1.248 m 0.48,-3.84 h -0.192 l -3.84,-0.384 c -0.768,-0.096 -1.344,-0.768 -1.248,-1.632 0.096,-0.768 0.768,-1.344 1.632,-1.248 l 3.84,0.384 c 0.768,0.096 1.344,0.768 1.248,1.632 -0.096,0.672 -0.768,1.248 -1.44,1.248 m 0.384,-3.84 h -0.192 l -3.84,-0.384 c -0.768,-0.096 -1.344,-0.768 -1.248,-1.632 0.096,-0.768 0.768,-1.344 1.632,-1.248 l 3.84,0.384 c 0.768,0.096 1.344,0.768 1.248,1.632 -0.096,0.768 -0.672,1.248 -1.44,1.248 m -0.48,-3.936 h -0.192 l -3.84,-0.384 c -0.768,-0.096 -1.344,-0.768 -1.248,-1.632 0.096,-0.768 0.768,-1.344 1.632,-1.248 l 3.84,0.384 c 0.768,0.096 1.344,0.768 1.248,1.632 -0.096,0.768 -0.768,1.248 -1.44,1.248 m -26.304,-6.73 h -0.192 l -3.84,-0.383 c -0.768,-0.096 -1.344,-0.768 -1.248,-1.632 0.096,-0.864 0.768,-1.344 1.632,-1.248 l 3.84,0.384 c 0.768,0.096 1.344,0.768 1.248,1.632 -0.096,0.672 -0.768,1.248 -1.44,1.248 m -0.672,23.04 h -0.192 l -10.464,-1.152 c -0.768,-0.096 -1.344,-0.768 -1.248,-1.632 0.096,-0.864 0.768,-1.344 1.632,-1.248 l 10.464,1.152 c 0.768,0.096 1.344,0.768 1.248,1.632 -0.096,0.768 -0.768,1.248 -1.44,1.248 m -1.44,-4.032 h -0.192 l -3.84,-0.384 c -0.768,-0.096 -1.344,-0.768 -1.248,-1.632 0.096,-0.864 0.768,-1.344 1.632,-1.248 l 3.84,0.384 c 0.768,0.096 1.344,0.768 1.248,1.632 -0.096,0.768 -0.768,1.248 -1.44,1.248 m -0.576,-3.927 h -0.192 l -3.84,-0.384 c -0.768,-0.096 -1.344,-0.768 -1.248,-1.632 0.096,-0.768 0.768,-1.344 1.632,-1.248 l 3.84,0.384 c 0.768,0.096 1.344,0.768 1.248,1.632 -0.096,0.768 -0.672,1.248 -1.44,1.248 m 0.384,-3.753 h -0.192 l -3.84,-0.384 c -0.768,-0.096 -1.344,-0.768 -1.248,-1.632 0.096,-0.864 0.768,-1.344 1.632,-1.248 l 3.84,0.384 c 0.768,0.096 1.344,0.768 1.248,1.632 a 1.454,1.454 0 0 1 -1.44,1.248 m 0.48,-3.84 h -0.192 l -3.84,-0.384 c -0.768,-0.096 -1.344,-0.768 -1.248,-1.632 0.096,-0.864 0.768,-1.344 1.632,-1.248 l 3.84,0.384 c 0.768,0.096 1.344,0.768 1.248,1.632 -0.096,0.672 -0.768,1.248 -1.44,1.248 m 1.344,-3.735 h -0.192 l -3.84,-0.384 c -0.768,-0.096 -1.344,-0.768 -1.248,-1.632 0.096,-0.768 0.768,-1.344 1.632,-1.248 l 3.84,0.384 c 0.768,0.096 1.344,0.768 1.248,1.632 -0.096,0.768 -0.672,1.248 -1.44,1.248"
         id="path5" /></g></g></svg>
