<svg width="71" height="36" viewBox="0 0 71 36" fill="none" xmlns="http://www.w3.org/2000/svg">
<g id="Logo-wide 1" clip-path="url(#clip0_100_10)">
<path id="Vector" d="M67.9112 17.0816L67.8741 17.1188C68.1343 16.4126 68.6546 16.1524 69.1006 16.1524C69.7325 16.1524 70.29 16.6356 70.29 17.3418C70.29 17.4905 70.29 17.6763 70.2157 17.8993C68.9148 21.2445 66.1643 22.9542 63.4882 23.2144C62.2617 25.2958 60.2546 26.8197 57.3926 26.8197C53.3041 26.8197 51.4829 23.5861 51.4829 20.0551C51.4829 15.7064 54.2334 10.8745 58.8422 10.8745C59.8457 10.8745 60.7006 11.0976 61.4068 11.3949C63.4882 12.1754 64.8263 14.8887 64.8263 17.7878C64.8263 18.717 64.7519 19.6462 64.5289 20.5383C65.9042 20.0551 67.205 18.94 67.9112 17.0816ZM60.1431 13.9223V13.8852C59.3254 13.8852 58.8422 14.963 58.8422 16.2639C58.8422 18.1595 59.8829 19.9064 61.5183 20.5383C61.7785 19.7206 61.89 18.7914 61.89 17.7135C61.89 15.6321 61.2581 13.9223 60.1431 13.9223ZM57.4298 24.1064C58.4705 24.1064 59.5112 23.6604 60.3289 22.7312C57.913 21.6533 56.3891 19.1259 56.3891 16.7099C56.3891 15.8922 56.5378 15.0374 56.7608 14.294C55.2741 15.5206 54.4192 17.9365 54.4192 20.0551C54.4192 22.8055 55.7201 24.1064 57.4298 24.1064Z" fill="black"/>
<path id="Vector_2" d="M52.0568 17.0816L52.0196 17.1188C52.2798 16.4126 52.7258 16.1153 53.1718 16.1153C53.8037 16.1153 54.4355 16.6728 54.4355 17.379C54.4355 17.5648 54.3984 17.7135 54.324 17.8993C52.8745 21.4303 50.7187 25.556 47.2621 27.9719L47.1878 28.7153C46.7789 33.1755 44.5117 36.0002 41.6497 36.0002C39.4939 36.0002 38.2302 34.5135 38.2302 32.7666C38.2302 29.6073 41.4638 28.4551 44.4745 26.5224C44.5488 25.7418 44.586 24.8498 44.6231 23.8462C43.1364 25.4816 41.5382 26.1507 40.1258 26.1507C37.301 26.1507 34.9966 23.8462 34.9966 20.3153C34.9966 14.8887 38.5647 11.3206 42.5417 11.3206H42.5789C45.2922 11.3206 48.1913 12.7701 48.1913 15.3719C48.1913 16.2268 47.8196 20.8728 47.5223 24.4781C49.5293 22.5825 51.2019 19.4976 52.0568 17.0816ZM40.5346 23.4746C41.9099 23.4746 43.7683 22.6197 44.9205 18.4197C45.1063 17.4905 45.2178 16.6728 45.1807 15.7064C44.9577 14.7029 44.1028 14.1082 42.8762 14.1082C40.3488 14.1082 37.9329 16.5241 37.9329 20.2038C37.9329 22.4339 38.9736 23.4746 40.5346 23.4746ZM41.947 33.287H41.9842C42.7647 33.287 43.6196 32.7666 44.1771 29.4215C42.5417 30.3878 41.0178 31.3542 41.0178 32.5064C41.0178 32.9896 41.3895 33.287 41.947 33.287Z" fill="black"/>
<path id="Vector_3" d="M35.6488 17.0816L35.6117 17.1188C35.8718 16.4126 36.3922 16.1524 36.8382 16.1524C37.4701 16.1524 38.0276 16.6356 38.0276 17.3418C38.0276 17.4905 38.0276 17.6763 37.9533 17.8993C36.6524 21.2445 33.9019 22.9542 31.2258 23.2144C29.9993 25.2958 27.9922 26.8197 25.1302 26.8197C21.0417 26.8197 19.2205 23.5861 19.2205 20.0551C19.2205 15.7064 21.9709 10.8745 26.5798 10.8745C27.5833 10.8745 28.4382 11.0976 29.1444 11.3949C31.2258 12.1754 32.5639 14.8887 32.5639 17.7878C32.5639 18.717 32.4895 19.6462 32.2665 20.5383C33.6418 20.0551 34.9426 18.94 35.6488 17.0816ZM27.8807 13.9223V13.8852C27.063 13.8852 26.5798 14.963 26.5798 16.2639C26.5798 18.1595 27.6205 19.9064 29.2559 20.5383C29.5161 19.7206 29.6276 18.7914 29.6276 17.7135C29.6276 15.6321 28.9957 13.9223 27.8807 13.9223ZM25.1674 24.1064C26.2081 24.1064 27.2488 23.6604 28.0665 22.7312C25.6506 21.6533 24.1267 19.1259 24.1267 16.7099C24.1267 15.8922 24.2754 15.0374 24.4984 14.294C23.0117 15.5206 22.1568 17.9365 22.1568 20.0551C22.1568 22.8055 23.4577 24.1064 25.1674 24.1064Z" fill="black"/>
<path id="Vector_4" d="M21.1095 15.9083C20.5891 15.9083 20.1431 16.1685 19.8457 16.8747C18.8794 19.3278 16.8722 23.4907 14.8279 23.4907C13.5407 23.4907 12.5446 23.1996 11.538 22.9054C10.5101 22.605 9.4713 22.3013 8.10041 22.3013C7.61721 22.3013 6.94817 22.3757 6.3163 22.4872C8.21988 19.8914 8.93102 16.7477 9.6201 10.8054C8.32264 10.7228 7.26723 10.4831 6.49795 10.241C5.6763 17.7775 4.74324 20.6511 1.33566 23.4907C0.889636 23.8624 0.666626 24.3828 0.666626 24.9032C0.666626 25.7209 1.37284 26.4271 2.2649 26.4271C2.56225 26.4271 2.89676 26.3156 3.23128 26.1669C5.1269 25.312 6.27913 25.089 7.69155 25.089C8.58972 25.089 9.66446 25.3459 10.8151 25.6208C12.1405 25.9376 13.5666 26.2784 14.9395 26.2784C17.9501 26.2784 19.9201 23.3421 22.113 17.6552C22.2246 17.4694 22.2617 17.2464 22.2617 17.0605C22.2617 16.3543 21.7042 15.9083 21.1095 15.9083Z" fill="black"/>
<path id="Vector_5" fill-rule="evenodd" clip-rule="evenodd" d="M6.68654 8.70287C7.35963 8.93784 8.41045 9.2114 9.77288 9.29233L9.99588 9.29222C14.196 9.29222 16.9465 6.6904 16.9465 3.56821C16.9465 1.56109 15.3854 0 13.1924 0C10.2561 0 8.21179 2.00712 7.17106 5.98419C5.87015 5.27798 4.9781 4.01424 4.53207 2.41598C4.30905 1.63543 3.82586 1.15223 3.15681 1.15223C2.3391 1.15223 1.81873 1.78411 1.81873 2.63899C1.81873 5.16648 3.78869 7.58245 6.68786 8.69752L6.68654 8.70287ZM10.2189 6.57889C10.7764 4.01424 11.6685 2.78767 12.8579 2.78767C13.4898 2.78767 13.8986 3.15936 13.8986 3.8284C13.8986 5.05497 12.5977 6.50455 10.2189 6.57889Z" fill="black"/>
</g>
<defs>
<clipPath id="clip0_100_10">
<rect width="70" height="36" fill="white" transform="translate(0.666626)"/>
</clipPath>
</defs>
</svg>
